<?xml version="1.0" encoding="UTF-8" standalone="no"?>
<svg width="300px" height="300px" viewBox="0 0 300 300" version="1.1" xmlns="http://www.w3.org/2000/svg" xmlns:xlink="http://www.w3.org/1999/xlink">
    <!-- Generator: Sketch 50.2 (55047) - http://www.bohemiancoding.com/sketch -->
    <title>Artboard</title>
    <desc>Created with Sketch.</desc>
    <defs></defs>
    <g id="Artboard" stroke="none" stroke-width="1" fill="none" fill-rule="evenodd">
        <path d="M283.997289,281.137806 L273.60816,281.137806 L273.60816,243.536482 C273.60816,241.351824 272.551842,239.275199 270.931354,238.098844 L236.300924,210.604564 C233.86419,208.924058 231.991626,206.727396 230.719243,204.074597 C221.57849,179.761275 212.689813,163.592406 203.54906,154.685723 C201.778527,152.963204 198.921667,152.987212 197.181142,154.763747 C195.44662,156.546283 195.482631,159.397142 197.265168,161.131664 C200.025999,163.820474 202.834845,167.481577 205.667698,171.958925 C201.478437,170.38045 196.731007,169.576208 191.485427,169.576208 C174.800402,169.576208 156.092768,177.828693 145.769659,185.493001 C137.865278,191.368771 128.628497,193.583438 123.604984,194.405685 L124.127141,180.631537 C124.22317,178.146789 122.284586,176.05816 119.799838,175.968133 C117.375108,175.746066 115.22646,177.804686 115.130431,180.289434 L113.059808,235.043924 L109.980881,281.137806 L99.6277626,281.137806 L96.2367413,192.545125 C96.1767232,190.948644 95.684575,189.394176 94.8143129,188.037768 L80.9381339,166.665331 C76.7908849,160.279408 74.8042866,152.579089 75.3444492,144.974799 L77.3190439,117.150419 C77.4270765,115.589949 77.1329879,114.017475 76.4607854,112.601049 L61.7923678,81.8417849 C60.7720605,79.5971089 58.8034676,77.9706191 56.42075,77.3944455 C54.1940794,76.848281 51.7693492,77.3104202 49.8967852,78.6188143 L32.8276446,88.3597479 C32.035406,88.8158853 31.2971836,89.0559576 30.6069758,89.0559576 L30.600974,89.0559576 C24.9652767,88.8939088 19.2275487,85.394855 13.1297122,78.3607365 L33.3678072,64.9466967 C35.7205158,63.3562177 36.6267887,60.3072994 35.5404616,57.702515 L34.9162736,56.1960613 L65.0153384,35.6638776 L64.7332535,32.9810697 C64.2591107,28.5157248 65.6035156,23.8223113 67.0919639,20.1972196 L73.5919214,31.2405455 L112.825737,86.4211641 C117.081019,92.3989644 123.310895,96.8162948 130.369021,98.8569093 C168.25243,109.804206 241.858598,117.85263 244.973536,118.194733 L246.576019,118.362784 L247.920424,117.480518 C257.325256,111.328665 264.749492,106.467201 274.298368,103.784393 C275.822827,103.364267 276.501031,105.044773 276.687087,105.981055 C276.711094,106.089087 277.209244,108.699874 275.504731,109.408087 C261.814608,115.109804 251.899622,127.101416 251.479495,127.611569 L250.471192,128.84194 L250.189107,181.591826 C250.189107,184.814797 250.927329,188.073779 252.319748,191.014664 C258.951746,205.004878 268.488618,214.583762 282.922965,229.08413 L283.367099,229.534265 C283.775222,229.94839 283.997289,230.482551 283.997289,231.034717 L283.997289,281.137806 Z M289.302887,222.740219 C275.528738,208.894049 266.423996,199.747294 260.452198,187.161504 C259.62995,185.42098 259.191818,183.494399 259.191818,181.615834 L259.455898,132.160939 C262.090691,129.256065 269.610956,121.615764 278.961772,117.714589 C283.991287,115.62596 286.686098,110.068286 285.515746,104.210522 C284.165339,97.4224773 278.181537,93.3532518 271.867636,95.123785 C261.49051,98.0346617 253.436085,103.124194 244.349348,109.059982 C233.234,107.805604 166.980047,100.063273 132.871775,90.2083046 C127.752233,88.7258582 123.244875,85.5268948 120.165948,81.2055933 L81.1421953,26.3550741 L71.9594298,10.7323691 C69.8227863,7.06526467 63.7429552,7.10727732 61.6963389,10.7503745 C59.3196231,14.9336344 55.6165078,22.7960023 55.6285114,31.162522 L28.8004317,49.4620332 C25.889555,51.4486315 24.7612152,55.2537775 26.1176237,58.4887517 L26.2676689,58.8488602 L6.04157747,72.2568983 C4.45109847,73.3132164 3.37077311,74.9877207 3.07668454,76.8722883 C2.79459959,78.7028396 3.29875142,80.5874071 4.45710028,82.0218391 C12.9316525,92.5490096 21.400203,97.7945894 30.6910011,98.0646707 C32.8936644,98.0646707 35.120335,97.4284791 37.2989912,96.1741013 L54.0860469,86.5952165 L68.3403398,116.514227 L66.3657451,144.332605 C65.6815391,153.881481 68.178291,163.556395 73.38786,171.568808 L87.2400318,192.881226 L90.7030748,283.424495 C90.8591218,287.187628 93.9320472,290.140518 97.7071842,290.140518 L111.667389,290.140518 C115.340495,290.140518 118.41342,287.39169 118.839549,283.544531 L122.056517,235.440044 L122.056517,235.410035 L124.193161,203.444408 C130.284996,202.538135 141.394341,199.963359 151.141277,192.725179 C160.600125,185.697063 177.501216,178.578919 191.485427,178.578919 C202.108626,178.578919 209.598882,182.540112 213.758135,190.360467 C218.745637,199.741292 220.060033,202.562142 221.458454,205.557044 L222.556785,207.897749 C224.489367,211.954971 227.472265,215.454025 230.947312,217.83074 L264.605448,244.562791 L264.605448,283.232437 C264.605448,287.037583 267.708383,290.140518 271.519531,290.140518 L286.085918,290.140518 C289.903067,290.140518 293,287.037583 293,283.232437 L293,231.034717 C293,228.093831 291.853655,225.314994 289.765026,223.196356 L289.302887,222.740219 Z" id="Fill-55" fill="#0A0B09"></path>
    </g>
</svg>