<?xml version="1.0" encoding="utf-8"?>
<!-- Svg Vector Icons : http://www.onlinewebfonts.com/icon -->
<!DOCTYPE svg PUBLIC "-//W3C//DTD SVG 1.1//EN" "http://www.w3.org/Graphics/SVG/1.1/DTD/svg11.dtd">
<svg version="1.1" xmlns="http://www.w3.org/2000/svg" xmlns:xlink="http://www.w3.org/1999/xlink" x="0px" y="0px" viewBox="0 0 256 256" enable-background="new 0 0 256 256" xml:space="preserve">
<metadata> Svg Vector Icons : http://www.onlinewebfonts.com/icon </metadata>
<g><g><g><path fill="#000000" d="M114.4,69.8c-1.3,0.2-5.6,0.7-9.4,1.2C79,74.4,52.5,85,30.8,100.5c-5.3,3.8-16.8,13.5-19.4,16.2l-1.4,1.6l2.1,2.1l2.1,2.1l5.4-4.9C45.5,94.4,75,80.8,109.3,76.6c3.5-0.4,11.9-0.8,18.7-0.8c17.2,0,30,1.8,45.5,6.3c23.9,6.9,43.5,18.2,65.3,37.7l3.1,2.7l2-2.1l2.1-2.1l-1.5-1.6c-2.7-2.9-14.1-12.6-19.6-16.5c-21.1-15.1-46-25.1-71.9-29c-6.2-1-12-1.3-22.3-1.5C123.1,69.6,115.7,69.7,114.4,69.8z"/><path fill="#000000" d="M115,106.9c-30.3,2.5-53.7,12.1-74.8,30.4L35,142v4.1v4.1l3.5,3.3c18,17.1,40,27.6,66.7,31.8c9.7,1.5,34.2,1.5,44,0c26.7-4.2,49.3-14.9,67.8-31.8l4-3.7v-3.8V142l-4.3-3.9c-23.6-21-49.5-30.6-85-31.5C126.2,106.5,118.7,106.6,115,106.9z M136.8,113.8c10.9,2.9,20.2,12.1,23.6,23.6c1.6,5.3,1.4,13.9-0.4,19c-1.9,5.6-4.9,10.2-9.2,14.3c-4.7,4.4-8.6,6.6-14.7,8.1c-5.9,1.5-10.3,1.5-16.2,0c-6-1.5-10-3.7-14.6-8c-7.3-6.8-10.7-14.4-10.8-24c0-3.8,0.4-6.9,1.1-9.4c3.4-11.5,12.4-20.5,23.7-23.6C123.4,112.7,132.4,112.7,136.8,113.8z M98.8,119.6c-9.8,10.3-13.1,25.5-8.6,39.1c2.1,6.2,5.1,10.9,9.7,15.8l3.8,3.9l-2.5-0.4c-1.4-0.2-5.7-1.3-9.7-2.5c-17.3-5-33.4-13.6-47.4-25.5c-3.7-3.2-3.9-2.8,3.3-8.7c13.3-10.9,30.1-19.4,47.9-24.3C103.2,114.7,103.3,114.8,98.8,119.6z M162.9,117.5c18.4,5.3,35.2,14.4,48.6,26.2l2.8,2.5l-2.8,2.5c-14.4,12.8-33.6,22.9-52.3,27.7c-2.7,0.7-5.4,1.3-6,1.5s0.8-1.6,3.1-3.9c6.9-7.1,11.5-17.9,11.5-27.4c0-9.6-4.1-20-10.7-27.1l-4-4.3l2.4,0.4C156.7,115.8,160.1,116.7,162.9,117.5z"/><path fill="#000000" d="M124.1,123.8c-7.2,1.1-13.9,6.3-17.2,13.2c-1.4,2.9-1.6,4.1-1.6,9.7c0,5.7,0.2,6.6,1.7,9.8c3.8,7.7,11,12.5,19.5,13c5.9,0.3,9.8-0.7,14.6-3.9c10.1-6.8,12.9-21.5,6.1-31.8C142.4,126.4,133,122.5,124.1,123.8z"/></g></g></g>
</svg>