<svg xmlns="http://www.w3.org/2000/svg" width="1182.667" height="1706.667" version="1.0" viewBox="0 0 887 1280"><path d="M381 6.2c-13.5 3.3-27 6.9-30 8.1-8.2 3-10.4 6-14.9 20.2-7.1 22.2-10.8 43.4-11.8 67.5-.5 12.8-.3 16.5 1.1 21.2.9 3.1 1.6 6 1.6 6.6 0 .6-4.2.9-10.2.9-8.5 0-11.4.4-16.3 2.3-9.4 3.6-15.6 8.2-19.2 14.2-6.8 11.4-34.7 90.7-76.1 215.8-24.5 74.1-27.7 85-26.9 92 1 8.6 15.1 35.4 22.3 42.4 7.2 7 30.1 15.2 50.5 18.1 6.2.8 11.4 1.7 11.6 1.8.2.2-1.5 2.8-3.8 5.8-8.5 11.3-18.5 35.8-21.5 52.9-.8 4.7-1.7 16.2-2.1 25.5-.6 16.6-.5 17.3 2 25 8 24.6 9.2 34.8 9.1 79-.1 56.4-3.1 91.5-10 118.8-3.1 12.4-13.3 43-22 66.5-8.3 22.4-9.7 28.2-13.9 60.7-5.7 43.2-9.9 65.8-14 75.1-1.3 2.9-4.7 8.1-7.6 11.6-7.8 9.3-20.3 28.9-26.2 40.8-4.9 9.9-5.2 10.9-5.2 18.2.1 6.7.4 8.1 3 11.8 6.3 9.1 27.1 26.2 39 32.1 3.6 1.7 8.1 5 10.1 7.1 3.5 4 11.4 15.5 11.4 16.8 0 1.1-23.3 12-25.6 12-1.2 0-4.6-1.1-7.7-2.4-7.5-3.4-16.8-4.4-47.7-5.1-14.8-.4-29.6-1.3-33.5-2-3.8-.7-14-4-22.5-7.3-31.4-12.1-33.9-11.6-48.3 10.1-16.6 24.9-23.3 43.9-25.2 72.4-.9 12.6-.1 14.2 8.2 17.3 26.6 10 74.7 20.9 86.8 19.5 11.7-1.2 36.6-5.7 86-15.6 27.5-5.4 56.5-10.8 64.5-12 8-1.2 18.6-3.3 23.5-4.7 18.3-5.2 22.8-4.3 35.7 7.4 9.2 8.3 11.7 9.6 19.9 10.2 7.8.5 14.5-.5 36.9-5.8 26.3-6.2 30.8-6.6 46.8-4.4 8.7 1.2 19.7 1.9 29.9 1.9h16.2l2.9-2.8c3-2.9 3.9-4.6 11.8-23.2 5.9-14 22.6-47.1 29.9-59.5 11.4-19.1 14.3-20.5 9.6-4.4-1.7 5.4-3.5 13.6-4.2 18.2-1.5 11-.7 31.2 1.6 37.5 3.2 8.9 11.4 15.2 30 23.1 13.8 5.9 28 13.2 39.2 20.3 15.1 9.4 18.4 10.7 25.9 10 6.9-.7 13.4-3 46.4-17 36.8-15.5 46.7-18.7 76-24.6 31.3-6.4 35.8-7.8 38.1-11.5 3.2-5.3 2.2-12.8-5.7-39.6-8.9-30.1-14.4-42.7-25-56.6-9.6-12.5-17-27.4-13.6-27.4.4 0 2.4 3.3 4.5 7.3 2 4.1 8.3 13 13.8 19.8 27.9 34.5 33 43.1 51.2 87.1 14.4 34.8 18 39.5 30.1 39.1 10.7-.3 46-10.6 60.5-17.6 8.2-4 9.6-6.9 8.7-17.6-1.3-15.2-13.4-68.2-20.6-90.4-5.3-16.1-9.3-23.9-14.8-29.3-12.6-12.2-79-59.4-83.6-59.4-4.1 0-16.8 9.3-37.1 27.1-11.4 9.9-14.2 11.9-17 11.9-2.6 0-1.2-4.1 4.7-13.8 9.1-15.1 34.7-70.7 36.4-78.9.6-2.9.1-3.8-5.7-9.9-7.7-8.1-28.1-25.3-36.4-30.7-5.6-3.6-6.4-3.9-11.5-3.4-3.2.3-11 2.6-18.5 5.5-7.1 2.7-14.9 5.3-17.1 5.6-6.5 1.1-26.6-4.2-33.8-8.9l-2.4-1.6 2.9-13.2c1.5-7.3 5.3-23.8 8.4-36.7 3.1-12.9 11.9-51 19.5-84.5 7.7-33.6 16.9-72.9 20.4-87.5 12.9-52.3 38.1-148.9 42.9-164.5 12.9-41.5 19.7-64.1 25.8-85.4 3.9-13.5 8.1-26.5 9.4-29 1.3-2.5 5.1-7.2 8.4-10.4 4.4-4.3 6.6-7.4 8.1-11.4 2.8-7.5 4.3-19.4 3.5-27.8-.3-3.9-.6-11.7-.7-17.5 0-12.8 1.2-18.3 12.1-53.5 9.9-32.4 12.1-41 12.1-47.5 0-9.7-6-15.5-16.2-15.5-10.7 0-13.4 5-26.4 48.4-5.8 19.5-12.7 37.4-16.8 43.9-4 6.3-7.4 7.8-22.8 9.7-5.6.7-8.6 3.5-15 14-6.6 10.6-12.7 13.7-20 9.9-1.7-.9-6.4-4.7-10.4-8.5l-7.3-6.9h-7.4c-5.3 0-11.5 1-21.2 3.5-17.2 4.5-25.1 4.8-33 1.1-4.4-2-20.2-13.9-31.5-23.6-.9-.8-4.9-6.2-8.8-12-3.9-5.8-11-14.8-15.7-20-26.1-29-30.5-35.9-25.7-40.3 2.2-2 10.4-3.7 17.6-3.7 7.7 0 18.5-2.7 22.9-5.6 4.7-3.1 7.1-8.2 8.6-18.4.6-4.1 1.9-8.6 2.9-9.9 1-1.3 4.4-3.3 7.7-4.5l6-2.1.6-11c.7-14 2.9-21.1 8.4-27.3 4.4-4.9 5.6-7.7 7.5-17.4.9-4.3 1.9-6.3 4.1-8.3 1.7-1.4 3.7-2.5 4.5-2.5 2.3 0 5.4-3.8 5.4-6.5 0-4.3-4-10.7-10.9-17.5-8.5-8.5-16.3-13.5-28-18.2-5.1-2.1-11.3-4.9-13.6-6.2-5-3-10.5-8.9-10.5-11.5 0-1-1.9-4.7-4.1-8.2-5-7.7-5.5-10.8-3.9-24.8 1.2-10.3 1.1-11-.9-15.6-4.9-11-10.3-14.7-36.3-24.4C494.4 25.7 408.6-.3 406 .1c-.3 0-11.5 2.8-25 6.1zm335.2 435.3c2.4 5.4-1.9 25.1-22.5 103-4.1 15.4-10 37.9-13.2 50-10.4 40.4-18.5 68.8-24.5 86.5-16.4 48.6-37.9 133.3-54.5 215-3.5 17.3-7.3 34.2-8.3 37.5l-1.9 6-1.2-4.5c-.7-2.5-1.8-5.2-2.4-6.1-1.9-2.5-7.1-4.8-14.7-6.4-3.9-.8-8.3-2.1-9.9-2.9-7-3.7-11.9-12.5-26-46.7l-7.3-17.6 15.3-26.4c17.9-31 25.4-43.4 40.2-66.4 25-38.7 41-67.6 46.8-84.5 5.4-15.9 2.2-38.3-7.4-52.7-3-4.5-4.1-5.1-19.7-12.1-9.1-4-35.2-16.4-58-27.7-47.5-23.3-62.6-29.9-79.5-35-6.6-2-12.4-4-12.9-4.5-1.1-1.1 3.3-9.9 11.7-23.2 6.7-10.7 8.7-14.7 15.9-31.8 10.2-24.1 13.5-27.6 30.6-31.9 10.4-2.7 16.1-2.6 30.7.4 18.4 3.9 22.8 4.5 39.5 5.5 8.5.5 17.2 1.4 19.2 2 2.1.6 7.4 3.8 11.9 7.2 10.1 7.4 13.3 8.8 20.4 8.8 8.3 0 24.3-1.9 30.2-3.6 7.3-2 10.9-5.6 17.3-16.9 6.5-11.5 11.3-16.2 21.3-20.4 9-3.8 11.4-3.9 12.9-.6zM445.1 691c26 3.9 54.5 12.2 63.7 18.6.2.1-3.7 8.5-8.6 18.5-5 10.1-15.6 33.9-23.7 52.9l-14.7 34.6-11.9 14.3c-18.7 22.7-26.2 37.2-26.3 51.1-.1 10.7 3.7 18.2 15.3 30 12 12.2 23.4 19 32 19 4.5 0 13.6 7.4 26.4 21.6l11.6 12.7-9.3 13.6c-5.4 8-11 14.9-13.4 16.8-4.4 3.4-5.7 3.9-31.5 12.8-9.2 3.2-17.7 6.5-18.8 7.4-3.2 2.7-3.9 10.7-3.9 43.7 0 28.8-.1 31.4-1.7 32.2-1 .5-7.4 2.6-14.3 4.7-20 6-20.7 6.6-31.7 27.5-11.2 21.2-23.3 40-26 40-.8 0-6.1-1.3-11.7-2.9-10.9-3.2-17.9-4.6-26.7-5.6-6.9-.8-9-2.5-13.1-11.2-6-12.7-11.5-16.1-30.3-18.3-4.9-.6-9-1.2-9.1-1.3-.1-.1-2.1-7.8-4.3-17-2.3-9.3-5.3-20.5-6.7-24.9-2.9-9.1-2.8-11.1 1.3-29.8 7.3-33.7 21.8-79.5 33.6-106.2 3.1-6.9 9.5-22.4 14.2-34.4 10.5-26.5 18.4-42.4 28-56.4 8.5-12.6 10.5-17.5 15.2-37.5 4.1-17.5 7-25.8 19.1-54 4.9-11.6 11-26.6 13.6-33.4 2.5-6.8 6.3-15.5 8.3-19.4 4.7-8.9 13.4-18.4 19.4-21.2 4.2-1.9 5.6-2 13.5-1.3 4.9.4 15 1.7 22.5 2.8z"/></svg>