<?xml version="1.0" encoding="UTF-8" standalone="no"?>
<!-- Created with Inkscape (http://www.inkscape.org/) -->

<svg
   version="1.1"
   id="svg2"
   width="5333.3335"
   height="5333.3335"
   viewBox="0 0 5333.3335 5333.3335"
   sodipodi:docname="no money.eps"
   xmlns:inkscape="http://www.inkscape.org/namespaces/inkscape"
   xmlns:sodipodi="http://sodipodi.sourceforge.net/DTD/sodipodi-0.dtd"
   xmlns="http://www.w3.org/2000/svg"
   xmlns:svg="http://www.w3.org/2000/svg">
  <defs
     id="defs6" />
  <sodipodi:namedview
     id="namedview4"
     pagecolor="#ffffff"
     bordercolor="#000000"
     borderopacity="0.25"
     inkscape:showpageshadow="2"
     inkscape:pageopacity="0.0"
     inkscape:pagecheckerboard="0"
     inkscape:deskcolor="#d1d1d1" />
  <g
     id="g8"
     inkscape:groupmode="layer"
     inkscape:label="ink_ext_XXXXXX"
     transform="matrix(1.3333333,0,0,-1.3333333,0,5333.3333)">
    <g
       id="g10"
       transform="scale(0.1)">
      <path
         d="m 21400,20508.8 c -81.3,18.7 -162.5,34.3 -246.9,43.7 -184.4,31.3 -375,46.9 -571.8,46.9 h -853.2 -253.1 c -34.4,6.2 -68.8,9.3 -106.3,9.3 -568.7,0 -1090.6,221.9 -1471.8,593.8 -409.4,384.4 -662.5,934.4 -662.5,1540.6 0,796.9 440.6,1496.9 1090.6,1862.5 309.4,175 665.6,275 1043.7,275 h 1418.8 c 306.3,0 596.9,-68.7 862.5,-200 456.3,-218.7 825,-615.6 1003.1,-1115.6 3.2,-9.4 6.3,-18.8 12.5,-28.1 125,-306.3 471.9,-462.5 784.4,-350 325,115.6 496.9,475 381.3,800 -62.5,171.9 -137.5,337.5 -225.1,490.6 -390.6,693.8 -1021.8,1218.8 -1762.4,1475 -334.4,115.6 -690.7,178.1 -1056.3,178.1 h -193.7 v 1250 1153.2 c 0,343.7 -281.3,625 -625,625 -343.8,0 -625,-281.3 -625,-625 v -1153.2 -1250 c -440.7,-3.1 -862.5,-90.6 -1250,-249.9 -1237.5,-503.2 -2109.4,-1721.9 -2109.4,-3137.6 0,-1146.8 575,-2162.5 1450,-2771.9 340.6,-240.6 728.1,-418.7 1146.9,-518.7 193.7,-46.9 393.7,-78.1 596.8,-90.6 h 15.6 c 37.5,-9.4 75,-12.5 115.7,-12.5 h 931.2 340.7 c 184.3,0 359.3,-18.8 528.1,-59.4 946.9,-206.2 1609.4,-971.9 1609.4,-1943.7 v -137.5 c 0,-781.3 -431.3,-1434.4 -1093.8,-1765.7 -175,-90.6 -365.6,-156.2 -571.9,-193.7 -150,-31.3 -309.3,-46.9 -471.8,-46.9 h -1278.2 c -334.3,0 -678.1,87.5 -990.6,234.4 -171.9,81.2 -334.4,184.4 -481.2,300 -234.4,187.5 -428.2,412.5 -546.9,656.2 -18.8,46.9 -40.6,93.8 -56.3,140.6 -115.6,325 -471.8,493.8 -796.8,378.2 -325.1,-115.6 -496.9,-475 -381.3,-800 78.1,-221.9 187.5,-431.3 325,-628.1 265.6,-390.7 631.2,-731.3 1056.3,-987.5 209.3,-128.2 431.2,-237.5 662.5,-321.9 365.6,-137.5 753.1,-212.5 1146.8,-218.8 21.9,-3.1 40.7,-3.1 62.5,-3.1 h 40.7 v -1246.9 c -12.6,-3.1 -28.2,-3.1 -40.7,-3.1 h 40.7 v -1021.9 c 0,-343.7 281.2,-625 625,-625 343.7,0 625,281.3 625,625 v 1021.9 518.8 731.2 c 165.6,0 328.1,12.5 487.5,34.4 265.6,34.4 521.8,100 762.5,190.6 1256.2,471.9 2125,1637.5 2125,3031.3 v 137.5 c 0,1553.1 -1078.2,2818.7 -2568.8,3162.5"
         style="fill:#000000;fill-opacity:1;fill-rule:nonzero;stroke:none"
         id="path12" />
      <path
         d="m 20000,8740 c -2875,0 -5506.2,1087.5 -7496.9,2871.9 l 2975,2975 c -256.2,337.5 -462.5,709.3 -603.1,1106.2 -6.2,12.5 -9.4,28.2 -12.5,40.6 L 11621.9,12493.1 C 9837.5,14483.7 8750,17115 8750,19990 c 0,6203.2 5046.9,11250 11250,11250 2875,0 5506.3,-1087.5 7496.9,-2871.9 v 0 l -2984.4,-2984.3 c 203.1,-300 368.8,-628.2 493.8,-978.2 28.1,-75 50,-146.8 65.6,-225 l 3306.2,3306.3 C 30162.5,25496.2 31250,22865 31250,19990 31250,13786.9 26203.1,8740 20000,8740 Z m 9025,19887.5 c -125,134.4 -253.1,262.5 -387.5,387.5 -2243.7,2153.1 -5287.5,3475 -8637.5,3475 -6893.7,0 -12500,-5606.2 -12500,-12500 0,-3350 1321.87,-6393.7 3475,-8637.5 125,-134.4 253.1,-262.5 387.5,-387.5 2243.7,-2153.1 5287.5,-3475 8637.5,-3475 6893.8,0 12500,5606.2 12500,12500 0,3350 -1321.9,6393.7 -3475,8637.5"
         style="fill:#000000;fill-opacity:1;fill-rule:nonzero;stroke:none"
         id="path14" />
    </g>
  </g>
</svg>
